# xmcd CD database file
#
# Track frame offsets:
#	150
#	15570
#	35280
#	58952
#	79012
#	101257
#	121350
#	147200
#	163422
#	182242
#
# Disc length: 2759 seconds
#
# Revision: 0
# Processed by: cddbd v1.5.1PL0 Copyright (c) Steve Scherf et al.
# Submitted via: CDex 1.51
#
DISCID=820ac50a
DTITLE=WILD STYLE - WILD IN PARADISE
DYEAR=1995
DGENRE=JRock
TTITLE0=PARADISE(Album Version)
TTITLE1=天使より悪魔より
TTITLE2=ため息の街角
TTITLE3=GETOUT!
TTITLE4=Smile Forever
TTITLE5=もう一度君を知りたくて
TTITLE6=10月の雨
TTITLE7=out on the edge〜白と黒
TTITLE8=とまどいを断ち切って
TTITLE9=遅すぎたやさしさを
EXTD=YEAR: 1995
EXTT0=
EXTT1=
EXTT2=
EXTT3=
EXTT4=
EXTT5=
EXTT6=
EXTT7=
EXTT8=
EXTT9=
PLAYORDER=
